<svg  xmlns="http://www.w3.org/2000/svg" xmlns:xlink="http://www.w3.org/1999/xlink" viewBox="0 0 421 140.6" fill="#0196D0">
  <path d="M0,113.9h419.6v1.7H0V113.9z M368.5,23.2L384.8,66h-38.3l16.6-42.8H368.5z M370.8,57.6l-5.1-13.2l-5.1,13.2 L370.8,57.6z M395.8,95.1h-6.6c-2.9,0-5-1.6-5.8-3.8l-3-8H351l-3,8c-0.8,2.1-2.9,3.8-5.8,3.8h-6.3l8.4-21.8l43.1,0L395.8,95.1z M414.4,95.1H411l-33.2-84.4l-24.6,0l-32.8,84.4H317c-2.8,0-5-2.2-5-5c0-0.6,0.1-1.1,0.3-1.6l31.6-81.3c1.6-3.8,5.3-6.4,9.7-6.4 h12.2h0h12.7c4.4,0,8.1,2.7,9.7,6.4l31.1,81.3c0.2,0.5,0.2,1,0.2,1.6C419.4,92.9,417.2,95.1,414.4,95.1z M408.3,22.8 c-6.1,0-11-4.9-11-11c0-6.1,4.9-11,11-11c6.1,0,11,4.9,11,11C419.3,17.9,414.4,22.8,408.3,22.8z M408.3,2.5c-5.1,0-9.3,4.2-9.3,9.3 c0,5.1,4.2,9.3,9.3,9.3c5.2,0,9.3-4.2,9.3-9.3C417.6,6.7,413.4,2.5,408.3,2.5z M409.5,12.5h-4.2v5.6h-1.7v-13h6.1c2.4,0,4,1.3,4,3.4 c0,1.6-0.7,2.9-2.3,3.3v0c1.5,0.3,1.8,1.4,1.9,2.7c0.1,1.3,0,2.7,0.8,3.6h-1.9c-0.5-0.5-0.2-1.9-0.5-3.2 C411.5,13.6,411.2,12.5,409.5,12.5z M411.9,8.8c0-1.3-0.7-2.2-2.3-2.2h-4.3v4.5h3.6C410.5,11.1,411.9,10.7,411.9,8.8z M310.3,61.8 h-18.9c-4.8,0-8.7-4.1-8.7-9.1v-8.5c0-5,3.9-9.1,8.7-9.1h18.9c4.8,0,8.7,4.1,8.7,9.1v8.5C319,57.7,315.1,61.8,310.3,61.8z M309.1,45.1h-16.4v7.4h16.4V45.1z M292,27.8h-17v58.5h0c0,4.9-3.9,8.8-8.6,8.8h-8.9h-0.1h-8.9c-4.7,0-8.6-3.9-8.6-8.8h0V27.8h-17 c-4.8,0-8.6-3.9-8.6-8.8V9.6c0-4.8,3.9-8.8,8.6-8.8h34.5H292c4.8,0,8.6,3.9,8.6,8.8v1.1h-43.1h-0.1h-33.3v7.1h25.9V85h14.7V17.8 h35.8V19C300.7,23.9,296.8,27.8,292,27.8z M232.6,44.2v8.5c0,5-3.9,9.1-8.7,9.1H205c-4.8,0-8.7-4.1-8.7-9.1v-8.5 c0-5,3.9-9.1,8.7-9.1H224C228.7,35.2,232.6,39.2,232.6,44.2z M222.7,45.1h-16.4v7.4h16.4V45.1z M179.7,61.8h-19.5v7.3h19.5 c5.2,0,9.3,4.2,9.4,9.3h-39.3V52.5h29v-7.4h-29V17.8h39.4v0.8c0,5.2-4.2,9.4-9.4,9.4h-19.5v7.3h19.5c5.2,0,9.4,4.2,9.4,9.4v7.7 C189.1,57.6,184.9,61.8,179.7,61.8z M133.8,85h55.4v0.7c0,5.2-4.2,9.4-9.4,9.4h-46.6c-5.2,0-9.4-4.2-9.4-9.4V10.2 c0-5.2,4.2-9.4,9.4-9.4h46.6c5.2,0,9.4,4.2,9.4,9.4v0.5h-55.4V85z M48,95.9c-26.5,0-48-21.5-48-48C0,21.5,21.5,0,48,0 c26.5,0,48,21.5,48,47.9C96,74.4,74.5,95.9,48,95.9z M56.7,9.9L48,18.7H30c-1.5-1.9-3.8-3.1-6.4-3.1c-4.5,0-8.1,3.6-8.1,8.1 c0,4.5,3.6,8.1,8.1,8.1c2.6,0,4.9-1.2,6.4-3.1h22.1L63.8,17L56.7,9.9z M68,21.2L54.4,34.8H31.1L9.6,56.3l7.1,7l18.5-18.5h23.3 l16.5-16.5L68,21.2z M79.3,32.5L60.7,51.1H37.4L20.9,67.6l7.1,7L41.6,61h23.3l21.5-21.4L79.3,32.5z M72.3,80.3 c4.5,0,8.1-3.6,8.1-8.1c0-4.5-3.6-8.1-8.1-8.1c-2.6,0-4.9,1.2-6.4,3.1H43.9L32.2,78.9l7.1,7l8.7-8.7h18 C67.4,79.1,69.7,80.3,72.3,80.3z M12.2,130H2.3v2.5h6.9v2.1H2.3v3h10.4v2.1H0v-11.8h12.2V130z M31,137.7v-9.8h2.3v11.8h-3.4l-8-9.8 v9.8h-2.3v-11.8H23L31,137.7z M48.5,127.5c2.6,0,4.8,0.9,6.5,2.7l-2.2,1.1c-1.2-1.2-2.7-1.7-4.4-1.7c-1.6,0-2.8,0.4-3.9,1.2 c-1,0.8-1.5,1.8-1.5,3c0,1.2,0.5,2.2,1.5,3c1,0.8,2.3,1.2,3.9,1.2c2.4,0,4-0.9,4.8-2.6h-5.3v-2.1H56v0.4c0,1.9-0.7,3.5-2.1,4.6 c-1.4,1.2-3.3,1.8-5.6,1.8c-2.1,0-3.8-0.5-5.3-1.5c-1.6-1.2-2.5-2.8-2.5-4.7c0-1.9,0.8-3.5,2.5-4.7C44.5,128,46.3,127.5,48.5,127.5z M65.6,139.7h-2.3v-11.8h2.3V139.7z M85.1,137.7v-9.8h2.3v11.8h-3.4l-8-9.8v9.8h-2.3v-11.8h3.4L85.1,137.7z M107.6,130h-9.9v2.5h6.9 v2.1h-6.9v3H108v2.1H95.4v-11.8h12.2V130z M127.2,130h-9.9v2.5h6.9v2.1h-6.9v3h10.4v2.1H115v-11.8h12.2V130z M147.1,128.9 c0.7,0.7,1.1,1.6,1.1,2.7c0,2-1,3.1-2.9,3.6l3.2,4.5h-2.6l-3.1-4.3h-5.8v4.3h-2.3v-11.8h9.5C145.4,127.9,146.4,128.2,147.1,128.9z M136.9,130v3.3h6.9c1.4,0,2.1-0.5,2.1-1.6c0-1.1-0.7-1.7-2.2-1.7H136.9z M158,139.7h-2.3v-11.8h2.3V139.7z M177.4,137.7v-9.8h2.3 v11.8h-3.4l-8-9.8v9.8H166v-11.8h3.4L177.4,137.7z M194.9,127.5c2.6,0,4.8,0.9,6.5,2.7l-2.2,1.1c-1.2-1.2-2.7-1.7-4.4-1.7 c-1.6,0-2.8,0.4-3.9,1.2c-1,0.8-1.5,1.8-1.5,3c0,1.2,0.5,2.2,1.5,3c1,0.8,2.3,1.2,3.9,1.2c2.4,0,4-0.9,4.8-2.6h-5.3v-2.1h8.2v0.4 c0,1.9-0.7,3.5-2.1,4.6c-1.4,1.2-3.3,1.8-5.6,1.8c-2.1,0-3.8-0.5-5.3-1.5c-1.6-1.2-2.5-2.8-2.5-4.7c0-1.9,0.8-3.5,2.5-4.7 C190.9,128,192.7,127.5,194.9,127.5z M231.5,130h-5.6v9.7h-2.3V130h-5.6v-2.1h13.6V130z M250.2,130h-9.9v2.5h6.9v2.1h-6.9v3h10.4 v2.1h-12.7v-11.8h12.2V130z M264.6,127.5c2.9,0,5.3,1.1,7.1,3.2l-2.1,0.7c-1.3-1.2-2.9-1.9-4.8-1.9c-1.7,0-3,0.4-4,1.2 c-1,0.8-1.5,1.8-1.5,3c0,1.3,0.5,2.3,1.5,3c1,0.8,2.3,1.1,4,1.1c2,0,3.6-0.6,4.8-1.9l2,1.1c-1.7,2-4,2.9-6.8,2.9 c-2.4,0-4.2-0.6-5.7-1.8c-1.5-1.2-2.2-2.7-2.2-4.5c0-1.9,0.8-3.4,2.5-4.6C260.7,128,262.5,127.5,264.6,127.5z M281.1,132.5h9.1v-4.6 h2.3v11.8h-2.3v-5.1h-9.1v5.1h-2.3v-11.8h2.3V132.5z M312,137.7v-9.8h2.3v11.8h-3.4l-8-9.8v9.8h-2.3v-11.8h3.4L312,137.7z M329.3,127.5c2,0,3.8,0.5,5.2,1.6c1.7,1.2,2.5,2.8,2.5,4.7c0,1.9-0.8,3.5-2.5,4.7c-1.4,1-3.2,1.5-5.3,1.5c-2.1,0-3.9-0.5-5.3-1.5 c-1.6-1.2-2.5-2.8-2.5-4.7c0-1.9,0.8-3.5,2.5-4.7C325.5,128,327.2,127.5,329.3,127.5z M325.4,136.8c1,0.8,2.3,1.2,3.9,1.2 c1.6,0,2.9-0.4,3.9-1.2c1-0.8,1.5-1.8,1.5-3c0-1.2-0.5-2.2-1.5-3c-1-0.8-2.3-1.2-3.9-1.2c-1.6,0-2.9,0.4-3.9,1.2 c-1,0.8-1.5,1.8-1.5,3C323.9,135,324.4,136,325.4,136.8z M346.6,137.6h9.1v2.1h-11.4v-11.8h2.3V137.6z M369.2,127.5 c2,0,3.8,0.5,5.2,1.6c1.7,1.2,2.5,2.8,2.5,4.7c0,1.9-0.8,3.5-2.5,4.7c-1.4,1-3.2,1.5-5.3,1.5c-2.1,0-3.9-0.5-5.3-1.5 c-1.6-1.2-2.5-2.8-2.5-4.7c0-1.9,0.8-3.5,2.5-4.7C365.4,128,367.2,127.5,369.2,127.5z M365.3,136.8c1,0.8,2.3,1.2,3.9,1.2 c1.6,0,2.9-0.4,3.9-1.2c1-0.8,1.5-1.8,1.5-3c0-1.2-0.5-2.2-1.5-3c-1-0.8-2.3-1.2-3.9-1.2c-1.6,0-2.9,0.4-3.9,1.2 c-1,0.8-1.5,1.8-1.5,3C363.8,135,364.3,136,365.3,136.8z M391.4,127.5c2.6,0,4.8,0.9,6.5,2.7l-2.2,1.1c-1.2-1.2-2.7-1.7-4.4-1.7 c-1.6,0-2.8,0.4-3.9,1.2c-1,0.8-1.5,1.8-1.5,3c0,1.2,0.5,2.2,1.5,3c1,0.8,2.3,1.2,3.9,1.2c2.4,0,4-0.9,4.8-2.6h-5.3v-2.1h8.2v0.4 c0,1.9-0.7,3.5-2.1,4.6c-1.4,1.2-3.3,1.8-5.6,1.8c-2.1,0-3.8-0.5-5.3-1.5c-1.6-1.2-2.5-2.8-2.5-4.7c0-1.9,0.8-3.5,2.5-4.7 C387.5,128,389.3,127.5,391.4,127.5z M412.2,133.3l5-5.4h2.8l-6.7,7.1v4.6H411V135l-6.7-7.1h2.8L412.2,133.3z">
  </path>
</svg>
