<?xml version="1.0" encoding="UTF-8"?>
<!DOCTYPE svg PUBLIC "-//W3C//DTD SVG 1.1//EN" "http://www.w3.org/Graphics/SVG/1.1/DTD/svg11.dtd">
<!-- Creator: CorelDRAW X8 -->
<svg xmlns="http://www.w3.org/2000/svg" xml:space="preserve" width="800px" height="800px" version="1.1" style="shape-rendering:geometricPrecision; text-rendering:geometricPrecision; image-rendering:optimizeQuality; fill-rule:evenodd; clip-rule:evenodd"
viewBox="0 0 800 800"
 xmlns:xlink="http://www.w3.org/1999/xlink">
 <defs>
  <style type="text/css">
   <![CDATA[
    .fil0 {fill:#51B948}
    .fil1 {fill:#FEFEFE;fill-rule:nonzero}
   ]]>
  </style>
 </defs>
 <g id="Слой_x0020_1">
  <metadata id="CorelCorpID_0Corel-Layer"/>
  <g id="_1056181472">
   <circle class="fil0" cx="400" cy="400" r="400"/>
   <path class="fil1" d="M387 433c0,39 -1,66 -3,82 -1,16 -6,31 -15,44 -8,13 -20,24 -34,31 -14,7 -31,10 -50,10 -18,0 -35,-3 -49,-10 -15,-6 -26,-16 -35,-30 -9,-13 -14,-28 -16,-44 -1,-16 -2,-44 -2,-83l0 -66c0,-39 1,-66 2,-82 2,-16 7,-31 15,-44 9,-13 20,-24 35,-31 14,-7 31,-10 50,-10 18,0 34,3 49,10 14,6 26,16 35,30 8,13 14,28 15,44 2,16 3,44 3,83l0 66zm-89 -126c0,-18 -1,-30 -2,-35 -2,-5 -5,-7 -11,-7 -4,0 -8,2 -10,6 -3,4 -4,16 -4,36l0 179c0,22 1,36 3,41 1,6 5,8 11,8 5,0 9,-3 11,-9 2,-6 2,-20 2,-43l0 -176z"/>
   <polygon id="1" class="fil1" points="617,207 617,592 540,592 494,417 494,592 420,592 420,207 494,207 543,381 543,207 "/>
  </g>
 </g>
</svg>
